SplineFontDB: 3.0
FontName: La_roquette
FullName: TurtleBase La Roquette
FamilyName: TurtleBase
Weight: Medium
Copyright: Created by Alice/Vincent/Margot/Lorene, with FontForge 2.0 (http://fontforge.sf.net)
UComments: "2012-11-21: Created." 
Version: 001.000
ItalicAngle: 0
UnderlinePosition: -100
UnderlineWidth: 50
Ascent: 800
Descent: 200
UFOAscent: 800
UFODescent: -200
LayerCount: 2
Layer: 0 0 "Back"  1
Layer: 1 0 "Fore"  0
FSType: 1
OS2Version: 0
OS2_WeightWidthSlopeOnly: 0
OS2_UseTypoMetrics: 0
CreationTime: 1353602365
ModificationTime: 1353602365
PfmFamily: 0
TTFWeight: 500
TTFWidth: 5
LineGap: 0
VLineGap: 0
OS2TypoAscent: 800
OS2TypoAOffset: 0
OS2TypoDescent: 200
OS2TypoDOffset: 0
OS2TypoLinegap: 90
OS2WinAscent: 800
OS2WinAOffset: 0
OS2WinDescent: -72
OS2WinDOffset: 0
HheadAscent: 0
HheadAOffset: 1
HheadDescent: 0
HheadDOffset: 1
OS2Vendor: 'PfEd'
DEI: 91125
LangName: 1033 "" "" "" "" "" "Version 001.000" 
Encoding: UnicodeBmp
UnicodeInterp: none
NameList: Adobe Glyph List
DisplaySize: -96
AntiAlias: 1
FitToEm: 1
WinInfo: 48 8 2
BeginChars: 65537 42

StartChar: zero
Encoding: 48 48 0
Width: 1000
VWidth: 0
GlyphClass: 2
Flags: W
LayerCount: 2
Fore
SplineSet
462.917 634.675 m 0
 467.312 643 3.45898 157 1.72949 160 c 0
462.917 634.675 m 0
 464 634 462.521 160 462.521 160 c 1
 412.521 73.3975 l 1
 330.605 16.0391 l 1
 232.125 -1.3252 l 1
 133.645 16.0391 l 1
 51.7295 73.3975 l 1
 1.72949 160 l 1
 1.72949 160 0 184 2.125 634.675 c 0
462.917 634.675 m 1
 412.917 721.277 l 1
 331.002 778.636 l 1
 232.521 796 l 1
 134.041 778.636 l 1
 52.125 721.277 l 1
 2.125 634.675 l 1
EndSplineSet
EndChar

StartChar: one
Encoding: 49 49 1
Width: 1000
VWidth: 0
GlyphClass: 2
Flags: W
LayerCount: 2
Fore
SplineSet
204.184 0.37207 m 1
 204.184 800 l 1
 0 628.67 l 1
EndSplineSet
EndChar

StartChar: three
Encoding: 51 51 2
Width: 1000
VWidth: 0
GlyphClass: 2
Flags: W
LayerCount: 2
Fore
SplineSet
0 27.1553 m 1
 99.9531 0.37207 l 1
 199.907 27.1553 l 1
 273.078 100.326 l 1
 299.86 200.279 l 1
 273.078 300.232 l 1
 199.907 373.403 l 1
 99.9531 400.187 l 1
 199.907 426.969 l 1
 273.078 500.14 l 1
 299.86 600.093 l 1
 273.078 700.047 l 1
 199.907 773.218 l 1
 99.9531 800 l 1
 0 773.218 l 1
EndSplineSet
EndChar

StartChar: two
Encoding: 50 50 3
Width: 1000
VWidth: 0
GlyphClass: 2
Flags: WO
LayerCount: 2
Fore
SplineSet
51.6475 618 m 0
51.6475 618 m 1
 101.647 704.602 l 1
 183.563 761.961 l 1
 282.044 779.325 l 1
 380.524 761.961 l 1
 462.439 704.602 l 1
 512.439 618 l 1
 0 1.94824 l 1
 515.295 1.94824 l 1
EndSplineSet
EndChar

StartChar: four
Encoding: 52 52 4
Width: 1000
VWidth: 0
GlyphClass: 2
Flags: W
LayerCount: 2
Fore
SplineSet
1.03711 343.07 m 1
 572.199 343.07 l 1
 343.734 343.07 l 1
 343.734 0.37207 l 1
 343.734 800 l 1
 0 343.85 l 1
EndSplineSet
EndChar

StartChar: five
Encoding: 53 53 5
Width: 1000
VWidth: 0
GlyphClass: 2
Flags: W
LayerCount: 2
Fore
SplineSet
515.885 800 m 1
 45.2832 800 l 1
 45.2832 603.473 l 1
 94.4189 622.677 l 1
 145.914 632.428 l 1
 198.203 632.428 l 1
 249.697 622.677 l 1
 298.833 603.473 l 1
 344.117 575.397 l 1
 384.173 539.304 l 1
 417.783 496.29 l 1
 443.928 447.662 l 1
 461.812 394.897 l 1
 470.892 339.601 l 1
 470.892 283.449 l 1
 461.812 228.151 l 1
 443.928 175.388 l 1
 417.783 126.76 l 1
 384.173 83.7451 l 1
 344.117 47.6523 l 1
 298.833 19.5771 l 1
 249.697 0.37207 l 1
 198.203 -9.37793 l 1
 145.914 -9.37793 l 1
 94.4189 0.37207 l 1
 45.2832 19.5771 l 1
 0 47.6523 l 1
EndSplineSet
EndChar

StartChar: six
Encoding: 54 54 6
Width: 1000
VWidth: 0
GlyphClass: 2
Flags: W
LayerCount: 2
Fore
SplineSet
799.628 800 m 1
 0 800 l 1
 0 0.37207 l 1
 799.628 0.37207 l 1
 799.628 400.187 l 1
 0 400.187 l 1
EndSplineSet
EndChar

StartChar: nine
Encoding: 57 57 7
Width: 1000
VWidth: 0
GlyphClass: 2
Flags: W
LayerCount: 2
Fore
SplineSet
261.604 0.37207 m 1
 357.358 55.6562 l 1
 412.643 151.41 l 1
 412.643 648.962 l 1
 357.358 744.717 l 1
 261.604 800 l 1
 151.038 800 l 1
 55.2832 744.717 l 1
 0 648.962 l 1
 0 538.396 l 1
 55.2832 442.642 l 1
 151.038 387.357 l 1
 261.604 387.357 l 1
 405.235 470.283 l 1
EndSplineSet
EndChar

StartChar: eight
Encoding: 56 56 8
Width: 1000
VWidth: 0
GlyphClass: 2
Flags: W
LayerCount: 2
Fore
SplineSet
0 800 m 1
 399.813 800 l 1
 399.813 400.187 l 1
 0 400.187 l 1
 0 800 l 1
 0 0.37207 l 1
 399.813 0.37207 l 1
 399.813 400.187 l 1
EndSplineSet
EndChar

StartChar: question
Encoding: 63 63 9
Width: 1000
VWidth: 0
GlyphClass: 2
Flags: W
LayerCount: 2
Fore
SplineSet
0 504.837 m 1
 0 552.329 l 1
 8.24707 599.1 l 1
 24.4902 643.727 l 1
 48.2363 684.856 l 1
 78.7627 721.237 l 1
 115.144 751.764 l 1
 156.273 775.51 l 1
 200.9 791.753 l 1
 247.671 800 l 1
 295.163 800 l 1
 341.934 791.753 l 1
 386.561 775.51 l 1
 427.69 751.764 l 1
 464.071 721.237 l 1
 494.598 684.856 l 1
 518.344 643.727 l 1
 534.587 599.1 l 1
 542.834 552.329 l 1
 542.834 504.837 l 1
 534.587 458.066 l 1
 518.344 413.439 l 1
 494.598 372.31 l 1
 464.071 335.929 l 1
 427.69 305.402 l 1
 386.561 281.656 l 1
 341.934 265.413 l 1
 323.743 250.149 l 1
 311.87 229.585 l 1
 311.87 134.601 l 1
311.87 27.8711 m 1
 311.87 4.12598 l 1
EndSplineSet
EndChar

StartChar: hyphen
Encoding: 45 45 10
Width: 1000
VWidth: 0
GlyphClass: 2
Flags: W
LayerCount: 2
Fore
SplineSet
0 800 m 1
 230.97 800 l 1
EndSplineSet
EndChar

StartChar: seven
Encoding: 55 55 11
Width: 1000
VWidth: 0
GlyphClass: 2
Flags: W
LayerCount: 2
Fore
SplineSet
215.236 501.388 m 1
 451.778 501.388 l 1
45.7842 800 m 1
 489.778 798.388 l 1
 85.2363 0 l 1
EndSplineSet
EndChar

StartChar: C
Encoding: 67 67 12
Width: 1000
VWidth: 0
GlyphClass: 2
Flags: W
LayerCount: 2
Fore
SplineSet
412.521 73.3975 m 1
 330.605 16.0391 l 1
 232.125 -1.3252 l 1
 133.645 16.0391 l 1
 51.7295 73.3975 l 1
 1.72949 160 l 1
 1.72949 160 0 184 2.125 634.675 c 0
462.917 634.675 m 1
 412.917 721.277 l 1
 331.002 778.636 l 1
 232.521 796 l 1
 134.041 778.636 l 1
 52.125 721.277 l 1
 2.125 634.675 l 1
EndSplineSet
EndChar

StartChar: parenright
Encoding: 41 41 13
Width: 1000
VWidth: 0
GlyphClass: 2
Flags: W
LayerCount: 2
Fore
SplineSet
0 0.37207 m 1
 234.205 234.578 l 1
 234.205 565.795 l 1
 0 800 l 1
EndSplineSet
EndChar

StartChar: ampersand
Encoding: 38 38 14
Width: 1000
VWidth: 0
GlyphClass: 2
Flags: W
LayerCount: 2
Fore
SplineSet
564.029 78.0117 m 1
 146.525 575.573 l 1
 128.754 624.401 l 1
 128.754 676.363 l 1
 146.525 725.191 l 1
 179.926 764.996 l 1
 224.926 790.977 l 1
 276.099 800 l 1
 327.271 790.977 l 1
 372.271 764.996 l 1
 405.671 725.191 l 1
 423.442 676.363 l 1
 423.442 624.401 l 1
 405.671 575.573 l 1
 372.271 535.769 l 1
 327.271 509.788 l 1
 276.099 500.765 l 1
 224.926 491.741 l 1
 173.754 482.719 l 1
 114.887 455.269 l 1
 65.1309 413.519 l 1
 27.876 360.312 l 1
 5.66113 299.277 l 1
 0 234.572 l 1
 11.2783 170.607 l 1
 38.7285 111.74 l 1
 80.4795 61.9844 l 1
 133.685 24.7295 l 1
 194.72 2.51465 l 1
 259.425 -3.14648 l 1
 323.39 8.13281 l 1
 382.257 35.582 l 1
 432.013 77.333 l 1
 469.268 130.538 l 1
 491.482 191.573 l 1
 497.144 256.278 l 1
 485.865 320.244 l 1
EndSplineSet
EndChar

StartChar: A
Encoding: 65 65 15
Width: 1000
VWidth: 0
GlyphClass: 2
Flags: W
LayerCount: 2
Fore
SplineSet
-0.00292969 0 m 1
 257.997 800 l 1
 493.997 0 l 1
 410.997 280 l 1
 90.3369 280.242 l 1
EndSplineSet
EndChar

StartChar: B
Encoding: 66 66 16
Width: 1000
VWidth: 0
GlyphClass: 2
Flags: W
LayerCount: 2
Fore
SplineSet
0 0 m 1
 0 704 l 1
 0 800 l 1
 332.706 800 l 1
 372.706 752 l 1
 374.706 560 l 1
 332.706 500 l 1
 0 500 l 1
 332.706 500 l 1
 331.813 504.494 374 483 374 483 c 1
 469.115 408 l 1
 511 300 l 1
 511 201 l 1
 511 201 484.391 131 471 96 c 1
 379 0 l 1
 0 0 l 1
EndSplineSet
EndChar

StartChar: D
Encoding: 68 68 17
Width: 1000
VWidth: 0
GlyphClass: 2
Flags: W
LayerCount: 2
Fore
SplineSet
264.466 1.67969 m 0
 263 0 0 -0.556641 0 -0.556641 c 1
 0 801.388 l 1
500 158.249 m 0
 506 165.249 493.055 641.044 493.055 641.044 c 1
 437.916 722.891 l 1
 356 780.249 l 1
 257.521 797.613 l 1
 257.521 797.613 0 801.249 0 801.388 c 0
500 158.249 m 1
 444.861 76.4023 l 1
 362.945 19.0439 l 1
 264.466 1.67969 l 1
0 801.388 m 1
 0 -0.556641 l 1
EndSplineSet
EndChar

StartChar: G
Encoding: 71 71 18
Width: 1000
VWidth: 0
GlyphClass: 2
Flags: W
LayerCount: 2
Fore
SplineSet
336.918 400 m 0
 492.918 400 459.918 400 459.918 400 c 1
 462.521 160 l 1
 412.521 73.3975 l 1
 330.605 16.0391 l 1
 232.125 -1.3252 l 1
 133.645 16.0391 l 1
 51.7295 73.3975 l 1
 1.72949 160 l 1
 1.72949 160 0 184 2.125 634.675 c 0
412.917 721.277 m 1
 331.002 778.636 l 1
 232.521 796 l 1
 134.041 778.636 l 1
 52.125 721.277 l 1
 2.125 634.675 l 1
EndSplineSet
EndChar

StartChar: F
Encoding: 70 70 19
Width: 1000
VWidth: 0
GlyphClass: 2
Flags: W
LayerCount: 2
Fore
SplineSet
247.464 505 m 1
 0 502 l 1
0 -0 m 1
 0 502 l 1
 0 800 l 1
 497.779 802 l 1
EndSplineSet
EndChar

StartChar: H
Encoding: 72 72 20
Width: 1000
VWidth: 0
GlyphClass: 2
Flags: W
LayerCount: 2
Fore
SplineSet
0 0.37207 m 1
 0 800 l 1
 0 400.187 l 1
 497.778 406 l 1
 497.778 805.813 l 1
 497.778 6.18555 l 1
EndSplineSet
EndChar

StartChar: I
Encoding: 73 73 21
Width: 1000
VWidth: 0
GlyphClass: 2
Flags: W
LayerCount: 2
Fore
SplineSet
1 0.37207 m 1
 1 800 l 1
EndSplineSet
EndChar

StartChar: E
Encoding: 69 69 22
Width: 1000
VWidth: 0
GlyphClass: 2
Flags: W
LayerCount: 2
Fore
SplineSet
0 0.37207 m 1
 500.813 0.37207 l 1
 0 0.37207 l 1
 0 500.187 l 1
 299.86 500.187 l 1
0 800 m 1
 499.813 800 l 1
EndSplineSet
EndChar

StartChar: O
Encoding: 79 79 23
Width: 1000
VWidth: 0
GlyphClass: 2
Flags: W
LayerCount: 2
Fore
SplineSet
462.917 634.675 m 0
 464 634 462.521 160 462.521 160 c 1
 412.521 73.3975 l 1
 330.605 16.0391 l 1
 232.125 -1.3252 l 1
 133.645 16.0391 l 1
 51.7295 73.3975 l 1
 1.72949 160 l 1
 1.72949 160 0 184 2.125 634.675 c 0
462.917 634.675 m 1
 412.917 721.277 l 1
 331.002 778.636 l 1
 232.521 796 l 1
 134.041 778.636 l 1
 52.125 721.277 l 1
 2.125 634.675 l 1
EndSplineSet
EndChar

StartChar: J
Encoding: 74 74 24
Width: 1000
VWidth: 0
GlyphClass: 2
Flags: W
LayerCount: 2
Fore
SplineSet
298 800 m 1
 461.813 799 l 1
 461.813 157.372 l 1
 410.792 75.7852 l 1
 328.876 18.4268 l 1
 230.396 1.0625 l 1
 131.915 18.4268 l 1
 50 75.7852 l 1
 0 156.632 l 1
EndSplineSet
EndChar

StartChar: K
Encoding: 75 75 25
Width: 1000
VWidth: 0
GlyphClass: 2
Flags: W
LayerCount: 2
Fore
SplineSet
0 799.058 m 1
 0 0.37207 l 1
0 468.783 m 1
 370.217 800 l 1
87.2109 544 m 1
 492.421 8.8877 l 1
EndSplineSet
EndChar

StartChar: L
Encoding: 76 76 26
Width: 1000
VWidth: 0
GlyphClass: 2
Flags: W
LayerCount: 2
Fore
SplineSet
0 800 m 1
 0 0.37207 l 1
 482.813 0.37207 l 1
EndSplineSet
EndChar

StartChar: M
Encoding: 77 77 27
Width: 1000
VWidth: 0
GlyphClass: 2
Flags: W
LayerCount: 2
Fore
SplineSet
664.055 0 m 1
 540.297 794.252 l 1
 338.055 88.002 l 1
 140.242 800 l 1
 0.0546875 0 l 1
EndSplineSet
EndChar

StartChar: N
Encoding: 78 78 28
Width: 1000
VWidth: 0
GlyphClass: 2
Flags: W
LayerCount: 2
Fore
SplineSet
0 8.40918 m 1
 0 800 l 1
 497.779 0 l 1
 497.779 791.591 l 1
EndSplineSet
EndChar

StartChar: T
Encoding: 84 84 29
Width: 1000
VWidth: 0
GlyphClass: 2
Flags: W
LayerCount: 2
Fore
SplineSet
247.464 -0.62793 m 1
 247.464 799 l 1
 0 800 l 1
 497.778 799 l 1
EndSplineSet
EndChar

StartChar: P
Encoding: 80 80 30
Width: 1000
VWidth: 0
GlyphClass: 2
Flags: W
LayerCount: 2
Fore
SplineSet
325.469 334.208 m 0
325.469 334.208 m 0
 325.315 334 2.62988 331 1.31543 331 c 0
325.469 334.208 m 1
 406.315 384.208 l 1
 463.674 466.123 l 1
 481.038 564.604 l 1
 463.674 663.084 l 1
 406.315 745 l 1
 324.469 800.139 l 1
 0 800 l 1
 0 0.37207 l 1
EndSplineSet
EndChar

StartChar: Q
Encoding: 81 81 31
Width: 1000
VWidth: 0
GlyphClass: 2
Flags: W
LayerCount: 2
Fore
SplineSet
462.917 634.675 m 0
 464 634 462.521 160 462.521 160 c 1
 412.521 73.3975 l 1
 330.605 16.0391 l 1
 232.125 -1.3252 l 1
 133.645 16.0391 l 1
 51.7295 73.3975 l 1
 1.72949 160 l 1
 1.72949 160 0 184 2.125 634.675 c 0
462.917 634.675 m 1
 412.917 721.277 l 1
 331.002 778.636 l 1
 232.521 796 l 1
 134.041 778.636 l 1
 52.125 721.277 l 1
 2.125 634.675 l 1
273.475 73.2812 m 0
273.475 73.2812 m 1
 474.814 0 l 1
EndSplineSet
EndChar

StartChar: R
Encoding: 82 82 32
Width: 1000
VWidth: 0
GlyphClass: 2
Flags: W
LayerCount: 2
Fore
SplineSet
325.469 334.208 m 0
 319.986 331 431.924 130.341 499.985 -0 c 0
325.469 334.208 m 0
325.469 334.208 m 0
 325.315 334 2.62988 331 1.31543 331 c 0
325.469 334.208 m 1
 406.315 384.208 l 1
 463.674 466.123 l 1
 481.038 564.604 l 1
 463.674 663.084 l 1
 406.315 745 l 1
 324.469 800.139 l 1
 0 800 l 1
 0 0.37207 l 1
EndSplineSet
EndChar

StartChar: S
Encoding: 83 83 33
Width: 1000
VWidth: 0
GlyphClass: 2
Flags: W
LayerCount: 2
Fore
SplineSet
469.12 273.794 m 0
 472 278 465.931 157.632 465.931 157.632 c 1
 410.792 75.7852 l 1
 328.876 18.4268 l 1
 230.396 1.0625 l 1
 131.915 18.4268 l 1
 50 75.7852 l 1
 0 156.632 l 1
4.44727 645.071 m 0
 0 650 -2.01855 586.487 -2.01855 586.487 c 1
 47.9814 505.641 l 1
 129.896 448.282 l 1
 228.378 430.918 l 1
 332.065 412.999 l 1
 413.981 355.641 l 1
 469.12 273.794 l 1
4.44727 645.071 m 1
 59.5859 726.918 l 1
 141.502 784.276 l 1
 239.981 801.641 l 1
 338.463 784.276 l 1
 420.378 726.918 l 1
EndSplineSet
EndChar

StartChar: V
Encoding: 86 86 34
Width: 1000
VWidth: 0
GlyphClass: 2
Flags: W
LayerCount: 2
Fore
SplineSet
0 800 m 1
 247.464 0 l 1
 497.778 799 l 1
EndSplineSet
EndChar

StartChar: W
Encoding: 87 87 35
Width: 1000
VWidth: 0
GlyphClass: 2
Flags: W
LayerCount: 2
Fore
SplineSet
0 800 m 1
 193.753 8.11035 l 1
 395.847 794.296 l 1
 589.6 2.40527 l 1
 791.693 788.591 l 1
EndSplineSet
EndChar

StartChar: X
Encoding: 88 88 36
Width: 1000
VWidth: 0
GlyphClass: 2
Flags: W
LayerCount: 2
Fore
SplineSet
0 800 m 1
 497.778 0 l 1
497.778 800.557 m 1
 0 -0.556641 l 1
EndSplineSet
EndChar

StartChar: U
Encoding: 85 85 37
Width: 1000
VWidth: 0
GlyphClass: 2
Flags: W
LayerCount: 2
Fore
SplineSet
465.931 804 m 1
 465.931 157.632 l 1
 410.792 75.7852 l 1
 328.876 18.4268 l 1
 230.396 1.0625 l 1
 131.915 18.4268 l 1
 50 75.7852 l 1
 0 156.632 l 1
 0 810 l 1
EndSplineSet
EndChar

StartChar: Y
Encoding: 89 89 38
Width: 1000
VWidth: 0
GlyphClass: 2
Flags: W
LayerCount: 2
Fore
SplineSet
61.3896 801.549 m 1
 304.39 501.388 l 1
497.778 795.388 m 1
 0 0 l 1
EndSplineSet
EndChar

StartChar: Z
Encoding: 90 90 39
Width: 1000
VWidth: 0
GlyphClass: 2
Flags: W
LayerCount: 2
Fore
SplineSet
155.778 501.388 m 1
 419.778 501.388 l 1
45.7842 800 m 1
 497.778 798.388 l 1
 0 -0.556641 l 1
 497.778 0 l 1
EndSplineSet
EndChar

StartChar: u1F422
Encoding: 65536 128034 40
Width: 1000
VWidth: 0
GlyphClass: 2
Flags: W
LayerCount: 2
Fore
SplineSet
300.368 800 m 1
 635.878 800 l 1
 794.038 641.84 l 1
 123.02 641.84 l 1
 682.202 641.84 l 1
 761.282 562.759 l 1
 705.364 562.759 l 1
 626.283 641.84 l 1
 290.774 641.84 l 1
 211.694 562.759 l 1
 267.612 562.759 l 1
 346.692 641.84 l 1
 139.796 641.84 l 1
 297.956 800 l 1
 139.796 641.84 l 1
 0 641.84 l 1
 0 725.717 l 1
 83.877 725.717 l 1
 180.168 680.815 l 1
EndSplineSet
EndChar

